<svg id="Layer_5" enable-background="new 0 0 62 62" height="512" viewBox="0 0 62 62" width="512" xmlns="http://www.w3.org/2000/svg"><g><g><g><circle cx="46" cy="16" fill="#ffeaa7" r="15"/></g><g><circle cx="48" cy="23" fill="#fcd770" r="2"/></g><g><circle cx="53" cy="11" fill="#fcd770" r="3"/></g><g><path d="m44.7 1.07c.79.73 1.3 1.77 1.3 2.93 0 2.21-1.79 4-4 4s-4-1.79-4-4c0-.25.03-.48.07-.72l-.01-.01c1.96-1.22 4.22-2.01 6.64-2.22z" fill="#fcd770"/></g><g><path d="m43 16c0 1.66-1.02 3.09-2.46 3.69h-.01c-1.01-2.45-2.53-4.64-4.43-6.43.73-.77 1.75-1.26 2.9-1.26 2.21 0 4 1.79 4 4z" fill="#fcd770"/></g><g><path d="m17 53v6c0 1.1-.9 2-2 2h-6c-1.1 0-2-.9-2-2v-6z" fill="#dfb28b"/></g><g><path d="m17 47v2h-10v-3c0-1.66 1.34-3 3-3h2.75 1.25c1.66 0 3 1.34 3 3z" fill="#dfb28b"/></g><g><path d="m17 49v2 2h-10v-4z" fill="#d3a06c"/></g><g><path d="m29.03 45.02c2.41 1.83 3.97 4.73 3.97 7.98v1.6l-8-1.6v-2-4c0-1.1-.45-2.1-1.17-2.83-.73-.72-1.73-1.17-2.83-1.17h2c2.27 0 4.36.75 6.03 2.02z" fill="#ff826e"/></g><g><path d="m25 47v4h-8v-2-2c0-2.21 1.79-4 4-4 1.1 0 2.1.45 2.83 1.17.72.73 1.17 1.73 1.17 2.83z" fill="#ff826e"/></g><g><path d="m43 57v2c0 1.1-.89 2-2 2h-6v-6l1.42-1.41c.37-.38.88-.59 1.41-.59h.17c1.11 0 2 .9 2 2h1c1.11 0 2 .9 2 2z" fill="#f0d0b4"/></g><g><path d="m33 54.6 2 .4v6h-8c-5.52 0-10-4.48-10-10h8v2z" fill="#f0d0b4"/></g><g><path d="m41.7 30.36c-.86 4.82-3.53 9.01-7.29 11.83l-.01-.01-.4-5.18c2.38-2.65 4-6.16 4-10 0-8.28-6.72-15-15-15s-15 6.72-15 15c0 3.84 1.62 7.35 4 10l-.4 5.18-.01.01c-4.61-3.46-7.59-8.98-7.59-15.19 0-10.49 8.51-19 19-19 3.3 0 6.41.85 9.12 2.34 1.46.79 2.79 1.77 3.98 2.92 1.9 1.79 3.42 3.98 4.43 6.43.95 2.25 1.47 4.72 1.47 7.31 0 1.15-.1 2.27-.3 3.36z" fill="#ccd1d9"/></g><g><path d="m23 43h-2c-2.21 0-4 1.79-4 4v-1c0-1.66-1.34-3-3-3h-1.25c-.4-.25-.78-.52-1.16-.81l.01-.01.4-5.18h22l.4 5.18.01.01c-1.61 1.21-3.43 2.18-5.38 2.83-1.67-1.27-3.76-2.02-6.03-2.02z" fill="#aab2bd"/></g><g><path d="m38 27c0 3.84-1.62 7.35-4 10h-22c-2.38-2.65-4-6.16-4-10 0-8.28 6.72-15 15-15s15 6.72 15 15z" fill="#69d6f4"/></g></g><g><path d="m41.003 54h-.171c-.413-1.164-1.525-2-2.829-2h-.172c-.801 0-1.554.312-2.121.877l-1.038 1.037-.672-.134v-.782c0-2.96-1.181-5.646-3.09-7.626 5.868-2.521 10.116-7.665 11.553-13.774 1.164.266 2.349.402 3.537.402 8.822 0 16-7.178 16-16s-7.178-16-16-16c-6.168 0-11.696 3.495-14.371 8.985-2.617-1.259-5.536-1.985-8.629-1.985-11.028 0-20 8.972-20 20 0 5.827 2.502 11.25 6.803 15.02-1.769.088-3.23 1.322-3.661 2.98h-1.642c-2.481 0-4.5 2.019-4.5 4.5s2.019 4.5 4.5 4.5h1.5v5c0 1.654 1.346 3 3 3h6c1.654 0 3-1.346 3-3v-1.693c.364.517.767 1.011 1.223 1.467 2.078 2.077 4.84 3.222 7.778 3.222l14.002.004c1.654 0 3-1.346 3-3v-2c0-1.654-1.346-3-3-3zm-9.003-.62-6-1.2.001-5.181c0-1.004-.304-1.936-.815-2.721 3.907.981 6.814 4.513 6.814 8.721zm-24-3.38h8v2h-8zm5.058-8c-.141-.094-.28-.19-.417-.287l.285-3.713h20.147l.286 3.716c-1.273.896-2.676 1.633-4.186 2.185-1.761-1.199-3.887-1.902-6.173-1.902h-1.999c-1.491 0-2.817.669-3.734 1.708-.724-1.029-1.916-1.707-3.267-1.707zm20.471-6h-21.058c-2.234-2.636-3.471-5.813-3.471-9 0-7.72 6.28-14 14-14s14 6.28 14 14c0 3.187-1.237 6.364-3.471 9zm-15.528 10.998c0-1.654 1.346-3 3-3s3 1.346 3 3v3.001h-5.999v-3.001zm22.962-28.735c-.879-1.799-2.015-3.445-3.368-4.893.43-.233.904-.37 1.405-.37 1.654 0 3 1.346 3 3 0 .887-.39 1.704-1.037 2.263zm4.037-14.263c0 1.654-1.346 3-3 3s-3-1.346-3-3c0-.048.012-.092.015-.14 1.602-.922 3.395-1.52 5.284-1.749.447.537.701 1.19.701 1.889zm-7.852 1.155c.525 2.199 2.494 3.845 4.852 3.845 2.757 0 5-2.243 5-5 0-.691-.143-1.356-.409-1.97 7.444.313 13.409 6.45 13.409 13.97 0 7.72-6.28 14-14 14-1.07 0-2.137-.129-3.186-.375.114-.863.186-1.737.186-2.625 0-2.408-.45-4.708-1.234-6.848 1.377-.915 2.234-2.455 2.234-4.152 0-2.757-2.243-5-5-5-1.053 0-2.05.329-2.89.933-.847-.738-1.757-1.401-2.721-1.99.907-1.89 2.198-3.511 3.759-4.788zm-32.148 21.845c0-9.925 8.075-18 18-18s18 8.075 18 18c0 5.126-2.167 9.853-5.752 13.185l-.22-2.862c2.557-3.004 3.972-6.648 3.972-10.323 0-8.822-7.178-16-16-16s-16 7.178-16 16c0 3.675 1.415 7.319 3.972 10.323l-.22 2.866c-3.644-3.377-5.752-8.114-5.752-13.189zm5 17h4c1.103 0 2 .897 2 2v2h-8v-2c0-1.103.897-2 2-2zm-5.5 8c-1.378 0-2.5-1.122-2.5-2.5s1.122-2.5 2.5-2.5h1.5v5zm10.5 8h-6c-.551 0-1-.449-1-1v-5h8v5c0 .551-.449 1-1 1zm5.637-2.64c-1.461-1.461-2.353-3.336-2.576-5.36h5.939v.697l-1.832 2.748 1.664 1.109 1.629-2.443 8.54 1.708-.001 4.179-6.999-.002c-2.404 0-4.664-.936-6.364-2.636zm21.366 1.64c0 .551-.449 1-1 1l-5.003-.001.001-4.584 1.123-1.122c.189-.189.439-.293.707-.293h.172c.551 0 1 .449 1 1v1h2c.551 0 1 .449 1 1z"/><path d="m28 39h2v2h-2z"/><path d="m20 39h2v2h-2z"/><path d="m16 39h2v2h-2z"/><path d="m24 39h2v2h-2z"/><path d="m17 20.929h2v14.142h-2z" transform="matrix(.707 -.707 .707 .707 -14.527 20.929)"/><path d="m22 18.929h2v14.142h-2z" transform="matrix(.707 -.707 .707 .707 -11.648 23.879)"/><path d="m27 16.929h2v14.142h-2z" transform="matrix(.707 -.707 .707 .707 -8.77 26.828)"/><path d="m48 26c1.654 0 3-1.346 3-3s-1.346-3-3-3-3 1.346-3 3 1.346 3 3 3zm0-4c.551 0 1 .449 1 1s-.449 1-1 1-1-.449-1-1 .449-1 1-1z"/><path d="m53 15c2.206 0 4-1.794 4-4s-1.794-4-4-4-4 1.794-4 4 1.794 4 4 4zm0-6c1.103 0 2 .897 2 2s-.897 2-2 2-2-.897-2-2 .897-2 2-2z"/><path d="m53 20c0 1.136.486 2.223 1.333 2.981l1.334-1.49c-.424-.38-.667-.923-.667-1.491 0-1.103.897-2 2-2v-2c-2.206 0-4 1.794-4 4z"/><path d="m43 39h2v2h-2z"/><path d="m43 43h2v2h-2z"/><path d="m45 41h2v2h-2z"/><path d="m41 41h2v2h-2z"/><path d="m53 45h2v2h-2z"/><path d="m53 49h2v2h-2z"/><path d="m55 47h2v2h-2z"/><path d="m51 47h2v2h-2z"/><path d="m56 54h2v2h-2z"/><path d="m56 58h2v2h-2z"/><path d="m58 56h2v2h-2z"/><path d="m54 56h2v2h-2z"/><path d="m55 32h2v2h-2z"/><path d="m55 36h2v2h-2z"/><path d="m57 34h2v2h-2z"/><path d="m53 34h2v2h-2z"/></g></g></svg>