<svg id="Layer_3" enable-background="new 0 0 64 64" height="512" viewBox="0 0 64 64" width="512" xmlns="http://www.w3.org/2000/svg"><path d="m22 52.82v9.18h-20v-18h9 .01c.02 1.5.42 2.92 1.08 4.16.7 1.3 1.7 2.4 2.91 3.23l2.14-3.39c-1.25-.91-2.08-2.36-2.13-4h6.99v4.67z" fill="#fcd770"/><path d="m42 11.18v-9.18h20v18h-9-.01c-.02-1.38-.36-2.68-.92-3.85-.6-1.22-1.47-2.29-2.52-3.13l-2.56 3.07c1.17.91 1.95 2.32 2 3.91h-6.99v-4.67z" fill="#fcd770"/><path d="m38.12 38.12c-.45.95-1.06 1.82-1.81 2.57l-9.62 9.62c-1.29 1.29-2.92 2.16-4.69 2.51v-4.15c.7-.26 1.34-.66 1.86-1.19l8.64-8.64c.55.11 1.11.16 1.69.16 1.22 0 2.41-.24 3.52-.7.14-.06.27-.12.41-.19z" fill="#969faa"/><path d="m38.84 32.5-.98.98c-.78.79-1.82 1.3-2.92 1.46.04-.24.06-.5.06-.75 0-2.86-2.33-5.19-5.19-5.19-.25 0-.5.02-.75.06-1.1.16-2.14.67-2.92 1.46l-.98.98-8.64 8.64c-.97.96-1.52 2.3-1.52 3.67 0 .06 0 .13.01.19.05 1.64.88 3.09 2.13 4l-2.14 3.39c-1.21-.83-2.21-1.93-2.91-3.23-.66-1.24-1.06-2.66-1.08-4.16-.01-.06-.01-.13-.01-.19 0-2.44.97-4.78 2.69-6.5l9.62-9.62c.75-.75 1.62-1.36 2.57-1.8.14-.07.27-.13.41-.19 1.11-.46 2.3-.7 3.52-.7.58 0 1.14.05 1.69.16 3.72.69 6.65 3.62 7.34 7.34z" fill="#969faa"/><path d="m27.69 23.31 9.62-9.62c1.29-1.29 2.92-2.16 4.69-2.51v4.15c-.7.26-1.34.66-1.86 1.19l-8.64 8.64c-.55-.11-1.11-.16-1.69-.16-1.22 0-2.41.24-3.52.7-.14.06-.27.12-.41.19v-.01c.45-.95 1.06-1.82 1.81-2.57z" fill="#ccd1d9"/><path d="m48.99 20c-.05-1.59-.83-3-2-3.91l2.56-3.07c1.05.84 1.92 1.91 2.52 3.13.56 1.17.9 2.47.92 3.85.01.06.01.13.01.19 0 2.44-.97 4.78-2.69 6.5l-9.62 9.62c-.75.75-1.62 1.36-2.57 1.8-.14.07-.27.13-.41.19-1.11.46-2.3.7-3.52.7-.58 0-1.14-.05-1.69-.16-3.72-.69-6.65-3.62-7.34-7.34l.98-.98c.78-.79 1.82-1.3 2.92-1.46-.04.24-.06.5-.06.75 0 2.86 2.33 5.19 5.19 5.19.25 0 .5-.02.75-.06 1.1-.16 2.14-.67 2.92-1.46l.98-.98 8.64-8.64c.97-.96 1.52-2.3 1.52-3.67 0-.06 0-.13-.01-.19z" fill="#ccd1d9"/><path d="m41 1v9.422c-1.657.475-3.171 1.335-4.399 2.563l-9.615 9.615c-.744.744-1.356 1.597-1.838 2.529-.927.478-1.788 1.097-2.547 1.856l-9.615 9.615c-1.733 1.733-2.757 3.982-2.946 6.399h-9.04v20h22v-9.422c1.657-.475 3.171-1.335 4.399-2.563l9.615-9.615c.744-.744 1.356-1.597 1.838-2.529.927-.478 1.788-1.097 2.547-1.856l9.615-9.615c1.733-1.733 2.757-3.982 2.946-6.399h9.04v-20zm-1.656 29.586c-1.04-2.757-3.225-4.902-5.934-5.926l7.432-7.432c.047-.047.108-.081.158-.126v3.898h6.919c-.161.81-.559 1.569-1.146 2.157zm-10.945-6.571 9.615-9.615c.851-.851 1.868-1.495 2.985-1.901v2.181c-.581.296-1.116.679-1.571 1.134l-8.284 8.284c-.438-.059-.883-.098-1.336-.098-.507 0-1.005.049-1.498.121.032-.033.056-.073.089-.106zm-14 14 9.615-9.615c1.548-1.548 3.605-2.4 5.794-2.4 3.773 0 7.03 2.573 7.938 6.184l-.588.588c-.344.343-.752.609-1.188.814-.306-3.131-2.952-5.586-6.162-5.586-1.629 0-3.225.661-4.379 1.813l-9.616 9.616c-1.152 1.154-1.813 2.749-1.813 4.379 0 1.652.671 3.236 1.83 4.391l-1.088 1.726c-1.733-1.546-2.742-3.765-2.742-6.117 0-2.189.852-4.246 2.399-5.793zm19.579-4.037c-2.138-.11-3.846-1.819-3.957-3.957 2.139.111 3.847 1.819 3.957 3.957zm-9.322-.564c1.04 2.757 3.225 4.902 5.934 5.926l-7.432 7.432c-.048.047-.108.081-.158.126v-3.898h-6.919c.161-.81.559-1.569 1.146-2.157zm-3.656 27.586h-18v-16h7.073c.342 2.902 1.915 5.541 4.36 7.218l.857.588 3.189-5.06-.754-.551c-.749-.547-1.282-1.327-1.542-2.195h4.817zm14.601-21.015-9.615 9.615c-.851.851-1.868 1.495-2.985 1.901v-2.181c.581-.296 1.116-.679 1.571-1.134l8.284-8.284c.438.059.883.098 1.336.098.507 0 1.005-.049 1.498-.121-.032.033-.056.073-.089.106zm14-14-9.615 9.615c-1.548 1.548-3.605 2.4-5.794 2.4-3.773 0-7.03-2.573-7.938-6.184l.588-.588c.344-.343.752-.609 1.188-.814.306 3.131 2.952 5.586 6.162 5.586 1.629 0 3.225-.661 4.379-1.813l9.616-9.616c1.152-1.154 1.813-2.749 1.813-4.379 0-1.576-.586-3.057-1.636-4.192l1.292-1.546c1.5 1.526 2.344 3.569 2.344 5.738 0 2.189-.852 4.246-2.399 5.793zm11.399-6.985h-7.071c-.308-2.649-1.635-5.067-3.749-6.763l-.764-.613-3.862 4.619.819.636c.706.548 1.187 1.293 1.433 2.121h-4.806v-16h18z"/><path d="m57 11h2v-6h-8v2h6z"/><path d="m47 5h2v2h-2z"/><path d="m7 51h-2v8h6v-2h-4z"/><path d="m5 47h2v2h-2z"/><path d="m44 39h2v2h-2z"/><path d="m44 43h2v2h-2z"/><path d="m46 41h2v2h-2z"/><path d="m42 41h2v2h-2z"/><path d="m50 48h2v2h-2z"/><path d="m50 52h2v2h-2z"/><path d="m52 50h2v2h-2z"/><path d="m48 50h2v2h-2z"/><path d="m28 10h2v2h-2z"/><path d="m28 14h2v2h-2z"/><path d="m30 12h2v2h-2z"/><path d="m26 12h2v2h-2z"/><path d="m12 20h2v2h-2z"/><path d="m12 24h2v2h-2z"/><path d="m14 22h2v2h-2z"/><path d="m10 22h2v2h-2z"/><path d="m16 8h2v2h-2z"/><path d="m16 12h2v2h-2z"/><path d="m18 10h2v2h-2z"/><path d="m14 10h2v2h-2z"/><path d="m57 29h2v2h-2z"/><path d="m57 33h2v2h-2z"/><path d="m59 31h2v2h-2z"/><path d="m55 31h2v2h-2z"/><path d="m34 51h2v2h-2z"/><path d="m34 55h2v2h-2z"/><path d="m36 53h2v2h-2z"/><path d="m32 53h2v2h-2z"/></svg>