<svg width="944" height="942" viewBox="0 0 944 942" fill="none" xmlns="http://www.w3.org/2000/svg">
<mask id="path-1-inside-1_104_50" fill="white">
<path fill-rule="evenodd" clip-rule="evenodd" d="M925.806 570.169C858.828 826.951 624.312 988.105 402 930.118L402.197 929.365C385.168 931.911 367.738 933.23 350 933.23C156.7 933.23 0 776.53 0 583.23C0 389.931 156.7 233.23 350 233.23C430.873 233.23 505.34 260.66 564.604 306.723L644.549 0.230469C866.861 58.2176 992.784 313.388 925.806 570.169ZM552.072 354.77C498.265 307.142 427.509 278.23 350 278.23C181.553 278.23 45 414.784 45 583.23C45 751.677 181.553 888.23 350 888.23C372.208 888.23 393.861 885.857 414.721 881.35L552.072 354.77Z"/>
</mask>
<path d="M402 930.118L358.457 918.76L347.098 962.303L390.642 973.661L402 930.118ZM925.806 570.169L969.349 581.527L969.349 581.527L925.806 570.169ZM402.197 929.365L445.739 940.723L462.941 874.782L395.542 884.86L402.197 929.365ZM564.604 306.723L536.989 342.253L590.91 384.163L608.147 318.081L564.604 306.723ZM644.549 0.230469L655.906 -43.3127L612.363 -54.6703L601.005 -11.1272L644.549 0.230469ZM552.072 354.77L595.615 366.128L602.589 339.389L581.898 321.074L552.072 354.77ZM414.721 881.35L424.225 925.335L451.278 919.489L458.264 892.707L414.721 881.35ZM390.642 973.661C642.683 1039.4 897.691 856.253 969.349 581.527L882.263 558.812C819.966 797.649 605.941 936.808 413.358 886.575L390.642 973.661ZM358.654 918.006L358.457 918.76L445.543 941.477L445.739 940.723L358.654 918.006ZM350 978.23C369.973 978.23 389.627 976.744 408.851 973.87L395.542 884.86C380.709 887.077 365.503 888.23 350 888.23V978.23ZM-45 583.23C-45 801.383 131.848 978.23 350 978.23V888.23C181.553 888.23 45 751.677 45 583.23H-45ZM350 188.23C131.848 188.23 -45 365.078 -45 583.23H45C45 414.784 181.553 278.23 350 278.23V188.23ZM592.22 271.193C525.338 219.209 441.223 188.23 350 188.23V278.23C420.523 278.23 485.341 302.11 536.989 342.253L592.22 271.193ZM601.005 -11.1272L521.061 295.365L608.147 318.081L688.092 11.5881L601.005 -11.1272ZM969.349 581.527C1041.01 306.801 907.947 22.4288 655.906 -43.3127L633.191 43.7736C825.775 94.0065 944.561 319.975 882.263 558.812L969.349 581.527ZM581.898 321.074C520.18 266.444 438.914 233.23 350 233.23V323.23C416.103 323.23 476.35 347.841 522.246 388.466L581.898 321.074ZM350 233.23C156.7 233.23 0 389.931 0 583.23H90C90 439.636 206.406 323.23 350 323.23V233.23ZM0 583.23C0 776.53 156.7 933.23 350 933.23V843.23C206.406 843.23 90 726.824 90 583.23H0ZM350 933.23C375.423 933.23 400.262 930.512 424.225 925.335L405.217 837.365C387.461 841.202 368.993 843.23 350 843.23V933.23ZM508.529 343.412L371.177 869.992L458.264 892.707L595.615 366.128L508.529 343.412Z" fill="black" mask="url(#path-1-inside-1_104_50)"/>
<rect x="239" y="583.23" width="274" height="55" fill="black"/>
<path d="M636 323H704" stroke="black" stroke-width="45"/>
<path d="M799 323H867" stroke="black" stroke-width="45"/>
</svg>
