<svg width="500" height="500" viewBox="0 0 500 500" fill="none" xmlns="http://www.w3.org/2000/svg">
<rect width="500" height="500" fill="url(#paint0_linear_111_2)"/>
<mask id="path-1-inside-1_111_2" fill="white">
<path fill-rule="evenodd" clip-rule="evenodd" d="M218.026 114.966C200.599 69.8751 197.756 30.3765 212.166 24.6885C223.439 20.2388 242.131 37.7208 259.385 66.6157C280.563 47.1657 299.651 37.6068 308.49 43.858C320.311 52.218 309.841 86.053 285.104 123.078C298.339 162.683 299.426 195.512 286.387 200.659C276.674 204.493 261.452 192.043 246.387 170.04C223.355 192.472 202.036 203.998 192.542 197.283C180.392 188.691 191.791 153.186 218.026 114.966Z"/>
</mask>
<path fill-rule="evenodd" clip-rule="evenodd" d="M218.026 114.966C200.599 69.8751 197.756 30.3765 212.166 24.6885C223.439 20.2388 242.131 37.7208 259.385 66.6157C280.563 47.1657 299.651 37.6068 308.49 43.858C320.311 52.218 309.841 86.053 285.104 123.078C298.339 162.683 299.426 195.512 286.387 200.659C276.674 204.493 261.452 192.043 246.387 170.04C223.355 192.472 202.036 203.998 192.542 197.283C180.392 188.691 191.791 153.186 218.026 114.966Z" fill="white"/>
<path d="M218.026 114.966L226.27 120.625L229.254 116.279L227.354 111.361L218.026 114.966ZM212.166 24.6885L208.494 15.3869L208.494 15.3869L212.166 24.6885ZM259.385 66.6157L250.799 71.7426L257.099 82.2926L266.149 73.9808L259.385 66.6157ZM308.49 43.858L302.716 52.0225L302.716 52.0225L308.49 43.858ZM285.104 123.078L276.789 117.522L274.066 121.598L275.619 126.247L285.104 123.078ZM286.387 200.659L290.059 209.96L290.059 209.96L286.387 200.659ZM246.387 170.04L254.639 164.39L247.925 154.583L239.41 162.876L246.387 170.04ZM192.542 197.283L186.767 205.448L186.767 205.448L192.542 197.283ZM227.354 111.361C218.882 89.4408 214.136 69.3091 213.135 54.382C212.63 46.8597 213.121 41.2616 214.167 37.5998C215.247 33.8201 216.362 33.7829 215.837 33.9901L208.494 15.3869C200.764 18.438 196.832 25.4712 194.936 32.1063C193.007 38.8594 192.596 47.0206 193.179 55.7203C194.354 73.2373 199.743 95.4004 208.698 118.571L227.354 111.361ZM215.837 33.9901C215.502 34.1223 215.998 33.7064 218.111 34.5644C220.257 35.4357 223.207 37.304 226.837 40.5758C234.067 47.0925 242.459 57.7755 250.799 71.7426L267.971 61.4888C259.057 46.5609 249.476 34.0555 240.228 25.7199C235.619 21.5655 230.704 18.0917 225.635 16.0337C220.534 13.9624 214.466 13.0299 208.494 15.3869L215.837 33.9901ZM266.149 73.9808C276.345 64.6171 285.573 58.0826 292.847 54.6355C296.489 52.9095 299.203 52.1694 301.017 51.9963C302.771 51.8289 303.014 52.2335 302.716 52.0225L314.264 35.6936C309.547 32.3569 304.089 31.6123 299.117 32.0868C294.204 32.5556 289.164 34.2488 284.282 36.5623C274.508 41.1943 263.603 49.1642 252.621 59.2506L266.149 73.9808ZM302.716 52.0225C302.206 51.6618 303.119 51.801 303.319 55.1525C303.516 58.4504 302.87 63.3604 300.926 69.8498C297.07 82.7255 288.813 99.5259 276.789 117.522L293.419 128.633C306.132 109.605 315.477 90.9753 320.086 75.5874C322.374 67.9449 323.675 60.5146 323.284 53.9602C322.895 47.4594 320.685 40.2343 314.264 35.6936L302.716 52.0225ZM275.619 126.247C282.044 145.471 285.333 162.54 285.601 175.005C285.735 181.283 285.087 185.799 284.095 188.674C283.1 191.558 282.248 191.541 282.716 191.357L290.059 209.96C297.046 207.202 300.947 201.152 303.002 195.196C305.06 189.23 305.757 182.099 305.596 174.576C305.271 159.438 301.399 140.29 294.588 119.908L275.619 126.247ZM282.716 191.357C283.182 191.173 280.967 192.162 274.544 187.153C268.764 182.645 261.865 174.946 254.639 164.39L238.136 175.689C245.974 187.137 254.218 196.664 262.244 202.924C269.627 208.681 279.879 213.978 290.059 209.96L282.716 191.357ZM239.41 162.876C228.284 173.713 217.998 181.478 209.804 185.704C205.692 187.825 202.561 188.817 200.415 189.1C198.305 189.378 197.989 188.888 198.316 189.119L186.767 205.448C191.841 209.036 197.75 209.624 203.028 208.928C208.27 208.237 213.688 206.204 218.972 203.479C229.569 198.013 241.459 188.799 253.365 177.203L239.41 162.876ZM198.316 189.119C198.842 189.491 197.86 189.323 197.699 185.724C197.541 182.21 198.305 177.021 200.433 170.222C204.655 156.735 213.513 139.21 226.27 120.625L209.781 109.307C196.303 128.942 186.345 148.279 181.346 164.247C178.864 172.177 177.416 179.863 177.719 186.618C178.017 193.287 180.166 200.779 186.767 205.448L198.316 189.119Z" fill="#27180E" mask="url(#path-1-inside-1_111_2)"/>
<mask id="path-3-inside-2_111_2" fill="white">
<path fill-rule="evenodd" clip-rule="evenodd" d="M434.987 209.271C434.996 208.856 435 208.44 435 208.023C435 150.098 352.173 103.14 250 103.14C147.827 103.14 65 150.098 65 208.023C65 208.44 65.0043 208.856 65.0128 209.271C65.0043 209.529 65 209.787 65 210.047V452C65 464.703 75.2975 475 88 475H412C424.703 475 435 464.703 435 452V210.047C435 209.787 434.996 209.529 434.987 209.271Z"/>
</mask>
<path fill-rule="evenodd" clip-rule="evenodd" d="M434.987 209.271C434.996 208.856 435 208.44 435 208.023C435 150.098 352.173 103.14 250 103.14C147.827 103.14 65 150.098 65 208.023C65 208.44 65.0043 208.856 65.0128 209.271C65.0043 209.529 65 209.787 65 210.047V452C65 464.703 75.2975 475 88 475H412C424.703 475 435 464.703 435 452V210.047C435 209.787 434.996 209.529 434.987 209.271Z" fill="white"/>
<path d="M434.987 209.271L424.989 209.066L424.984 209.334L424.993 209.602L434.987 209.271ZM65.0128 209.271L75.0073 209.602L75.0162 209.334L75.0107 209.066L65.0128 209.271ZM425 208.023C425 208.372 424.996 208.719 424.989 209.066L444.985 209.477C444.995 208.993 445 208.508 445 208.023H425ZM250 113.14C299.681 113.14 344.167 124.578 375.883 142.559C407.897 160.708 425 184.238 425 208.023H445C445 173.883 420.69 144.971 385.747 125.16C350.506 105.181 302.491 93.1396 250 93.1396V113.14ZM75 208.023C75 184.238 92.1033 160.708 124.117 142.559C155.833 124.578 200.319 113.14 250 113.14V93.1396C197.509 93.1396 149.494 105.181 114.253 125.16C79.3103 144.971 55 173.883 55 208.023H75ZM75.0107 209.066C75.0036 208.719 75 208.371 75 208.023H55C55 208.508 55.005 208.993 55.0149 209.477L75.0107 209.066ZM75 210.047C75 209.898 75.0025 209.749 75.0073 209.602L55.0183 208.94C55.0061 209.308 55 209.677 55 210.047H75ZM75 452V210.047H55V452H75ZM88 465C80.8203 465 75 459.18 75 452H55C55 470.226 69.7746 485 88 485V465ZM412 465H88V485H412V465ZM425 452C425 459.18 419.18 465 412 465V485C430.225 485 445 470.225 445 452H425ZM425 210.047V452H445V210.047H425ZM424.993 209.602C424.998 209.749 425 209.898 425 210.047H445C445 209.677 444.994 209.308 444.982 208.941L424.993 209.602Z" fill="#27180E" mask="url(#path-3-inside-2_111_2)"/>
<path d="M313.58 283.35C309.559 280.929 304.389 280.929 299.794 283.35L267.627 303.326L245.799 316.039L214.206 336.015C210.185 338.436 205.016 338.436 200.42 336.015L175.721 320.276C171.7 317.855 168.828 313.012 168.828 307.564V277.297C168.828 272.454 171.125 267.611 175.721 264.585L200.42 249.451C204.441 247.03 209.611 247.03 214.206 249.451L238.906 265.19C242.927 267.611 245.799 272.454 245.799 277.902V297.878L267.627 284.561V263.979C267.627 259.136 265.329 254.294 260.734 251.267L214.781 222.816C210.76 220.395 205.59 220.395 200.995 222.816L153.893 251.872C149.298 254.294 147 259.136 147 263.979V320.881C147 325.724 149.298 330.567 153.893 333.593L200.42 362.045C204.441 364.466 209.611 364.466 214.206 362.045L245.799 342.674L267.627 329.356L299.219 309.985C303.24 307.564 308.41 307.564 313.005 309.985L337.705 325.119C341.726 327.54 344.598 332.383 344.598 337.831V368.098C344.598 372.941 342.3 377.783 337.705 380.81L313.58 395.944C309.559 398.365 304.389 398.365 299.794 395.944L275.094 380.81C271.073 378.389 268.201 373.546 268.201 368.098V348.727L246.373 362.045V382.021C246.373 386.864 248.671 391.706 253.266 394.733L299.794 423.184C303.815 425.605 308.984 425.605 313.58 423.184L360.107 394.733C364.128 392.312 367 387.469 367 382.021V324.513C367 319.671 364.702 314.828 360.107 311.801L313.58 283.35Z" fill="#8247E5"/>
<path d="M261.217 108.029C226.862 119.204 211.666 141.213 208.81 161" stroke="#27180E" stroke-width="10" stroke-linecap="round"/>
<path d="M248.214 108.03C280.271 118.359 293.831 140.606 295.81 161" stroke="#27180E" stroke-width="10" stroke-linecap="round"/>
<path d="M291 112C264.693 102.927 243.35 105.448 223 110.992" stroke="#63371D" stroke-width="18" stroke-linecap="round"/>
<defs>
<linearGradient id="paint0_linear_111_2" x1="9.45665e-06" y1="250" x2="500" y2="429.5" gradientUnits="userSpaceOnUse">
<stop stop-color="white"/>
<stop offset="1" stop-color="#8247E5"/>
</linearGradient>
</defs>
</svg>
